<svg xmlns="http://www.w3.org/2000/svg" version="1.1" xmlns:xlink="http://www.w3.org/1999/xlink" xmlns:svgjs="http://svgjs.dev/svgjs" width="1000" height="1000" viewBox="0 0 1000 1000"><rect width="1000" height="1000" fill="#000000"></rect><g transform="matrix(0.7,0,0,0.7,149.57575936287645,282.1265587044535)"><svg viewBox="0 0 396 247" data-background-color="#ffffff" preserveAspectRatio="xMidYMid meet" height="623" width="1000" xmlns="http://www.w3.org/2000/svg" xmlns:xlink="http://www.w3.org/1999/xlink"><defs></defs><g id="tight-bounds" transform="matrix(1,0,0,1,0.23999902849345744,-0.09999999999999432)"><svg viewBox="0 0 395.52 247.2" height="247.2" width="395.52"><g><svg></svg></g><g><svg viewBox="0 0 395.52 247.2" height="247.2" width="395.52"><g><path d="M8.211 231.111c-1.371 0-2.206-1.092-2.506-3.277-1.156-9.851-2.056-17.496-2.698-22.934-0.6-5.439-1.028-9.508-1.285-12.207-0.257-2.741-0.428-4.497-0.514-5.268-0.043-0.771-0.064-1.306-0.064-1.606 0-1.156 0.535-2.42 1.606-3.79 1.028-1.371 2.27-2.056 3.726-2.056 1.071 0 2.206 0.621 3.405 1.863 1.199 1.285 2.334 2.762 3.405 4.433 1.114 1.67 2.056 3.341 2.827 5.011 0.814 1.67 1.328 2.87 1.542 3.598 2.698 5.739 5.632 10.579 8.801 14.519 3.212 3.897 6.853 7.024 10.921 9.379 4.069 2.356 8.673 4.069 13.813 5.139 5.139 1.028 10.986 1.542 17.538 1.542 11.221 0 19.937-2.655 26.147-7.966 6.21-5.354 9.315-13.941 9.315-25.761 0-6.767-1.478-12.934-4.433-18.502-2.998-5.525-6.895-10.664-11.692-15.419-1.597-1.569-3.267-3.113-5.009-4.63l54.561 0c0.415 0.932 0.815 1.876 1.2 2.832 2.955 7.409 4.433 15.761 4.433 25.054 0 6.167-1.071 11.928-3.212 17.282-2.141 5.311-5.032 10.15-8.673 14.519-3.683 4.326-7.988 8.159-12.913 11.499-4.882 3.341-10.129 6.146-15.74 8.416-5.611 2.227-11.371 3.919-17.281 5.075-5.91 1.156-11.671 1.735-17.281 1.735-7.11 0-13.32-0.514-18.631-1.542-5.268-1.071-9.808-2.249-13.619-3.533-3.812-1.328-7.024-2.505-9.637-3.534-2.613-1.071-4.818-1.606-6.617-1.606-0.6 0-1.071 0.064-1.413 0.193zM5.448 82.581c-2.955-7.024-4.433-14.926-4.432-23.706 0-5.311 0.964-10.279 2.891-14.904 1.927-4.583 4.518-8.758 7.773-12.528 3.212-3.769 7.002-7.131 11.371-10.086 4.326-2.998 8.951-5.503 13.877-7.516 4.925-2.056 9.915-3.619 14.968-4.69 5.054-1.028 10.001-1.542 14.84-1.542 3.855 0 7.752 0.343 11.693 1.028 3.897 0.685 7.752 1.499 11.563 2.441 3.812 0.942 7.666 1.949 11.564 3.02 3.855 1.114 7.666 2.141 11.435 3.083l10.343-0.963c0.942 0 1.542 0.407 1.799 1.22 0.257 0.771 0.45 1.478 0.578 2.12l4.497 36.812c0 0.557-0.664 0.921-1.991 1.092-1.371 0.214-2.42 0.321-3.148 0.321-0.642 0-1.585-0.064-2.827-0.193-1.242-0.171-1.97-0.364-2.184-0.578-0.343-0.3-0.75-0.942-1.221-1.927-0.471-1.028-0.964-2.141-1.477-3.341-0.514-1.199-1.049-2.42-1.606-3.662-0.6-1.242-1.199-2.334-1.799-3.276-5.054-7.752-11.499-13.534-19.337-17.346-7.838-3.812-16.468-5.718-25.89-5.717-4.069 0-7.88 0.471-11.435 1.413-3.555 0.942-6.638 2.42-9.251 4.433-2.613 2.056-4.668 4.647-6.168 7.773-1.542 3.126-2.313 6.895-2.312 11.307 0 6.381 1.499 12.163 4.497 17.346 2.955 5.182 6.874 10.043 11.756 14.583 4.882 4.54 10.429 8.951 16.639 13.234 1.055 0.727 2.112 1.457 3.173 2.189l-64.14 0c-2.308-3.603-4.321-7.416-6.039-11.44zM178.262 92.988c2.912-10.365 7.024-19.958 12.335-28.781 5.354-8.78 11.799-16.66 19.337-23.641 7.495-7.024 15.825-12.956 24.991-17.795 9.165-4.882 18.973-8.63 29.423-11.243 10.45-2.613 21.372-3.919 32.764-3.919 9.636 0 18.909 0.857 27.817 2.57 8.951 1.756 18.181 3.769 27.689 6.039 1.585 0.428 3.234 0.964 4.947 1.606 1.756 0.6 3.383 1.199 4.882 1.799 1.499 0.557 2.891 1.049 4.176 1.477 1.242 0.428 2.184 0.642 2.827 0.643 0.171 0 0.878-0.214 2.12-0.643 1.199-0.428 2.056-0.642 2.569-0.642h7.195c1.242 0 1.863 0.899 1.864 2.698v51.137c0 0.6-0.236 1.006-0.707 1.221-0.471 0.214-1.478 0.321-3.02 0.321-0.3 0-1.114-0.021-2.441-0.064-1.328-0.043-2.141-0.343-2.441-0.899-0.214-0.3-0.6-0.921-1.156-1.863-0.6-0.942-1.221-1.906-1.863-2.891-0.685-0.985-1.328-1.927-1.928-2.827-0.557-0.899-0.899-1.499-1.028-1.799-3.94-7.838-8.266-14.455-12.977-19.851-4.711-5.396-9.915-9.765-15.611-13.105-5.696-3.341-11.885-5.76-18.566-7.26-6.724-1.542-14.005-2.313-21.843-2.313-9.936 0-18.738 1.156-26.404 3.469-7.709 2.313-14.433 5.546-20.172 9.701-5.739 4.197-10.579 9.23-14.519 15.097-3.897 5.868-7.088 12.27-9.572 19.209-2.441 6.938-4.219 14.369-5.332 22.292-0.058 0.429-0.115 0.859-0.17 1.29l-45.474 0c0.094-0.345 0.19-0.689 0.288-1.033zM229.978 168.474c2.827 7.88 6.467 15.204 10.921 21.971 4.454 6.724 9.808 12.57 16.061 17.538 6.296 4.968 13.62 8.866 21.971 11.692 8.352 2.827 17.817 4.24 28.396 4.241 8.866 0 17.153-1.328 24.862-3.984 7.666-2.698 14.69-6.317 21.071-10.857 6.381-4.54 12.056-9.765 17.025-15.675 4.968-5.91 9.23-12.099 12.784-18.566 0.214-0.557 0.45-0.857 0.707-0.9 0.257-0.043 0.642-0.064 1.156-0.064h8.03c0.3 0 0.642 0.128 1.028 0.386 0.343 0.257 0.514 0.814 0.514 1.67 0 0.3-0.236 1.114-0.706 2.441-0.471 1.285-0.964 2.398-1.478 3.341l-21.65 47.668c-0.214 0.343-0.535 0.6-0.964 0.771-0.385 0.214-0.75 0.321-1.092 0.321-2.484 0-4.219-0.193-5.203-0.578-1.028-0.428-2.056-0.642-3.084-0.642-3.126 0-7.281 0.535-12.463 1.606-5.182 1.114-10.771 2.291-16.768 3.533-6.039 1.285-12.121 2.463-18.245 3.534-6.082 1.114-11.542 1.67-16.382 1.67-10.964 0-21.628-1.199-31.993-3.598-10.322-2.398-20.044-5.889-29.166-10.471-9.08-4.54-17.388-10.129-24.926-16.768-7.538-6.638-14.026-14.133-19.466-22.485-5.439-8.352-9.636-17.581-12.592-27.689-0.528-1.779-1.009-3.58-1.443-5.401l48.726 0c1.147 5.249 2.603 10.347 4.369 15.295z" fill="#010c80" data-fill-palette-color="tertiary"></path></g><g transform="matrix(1,0,0,1,0,100.70338905075909)"><svg viewBox="0 0 395.52 45.793221898481825" height="45.793221898481825" width="395.52"><g><svg viewBox="0 0 395.52 45.793221898481825" height="45.793221898481825" width="395.52"><g><svg viewBox="0 0 395.52 45.793221898481825" height="45.793221898481825" width="395.52"><g><svg viewBox="0 0 395.52 45.793221898481825" height="45.793221898481825" width="395.52"><g><svg viewBox="0 0 395.52 45.793221898481825" height="45.793221898481825" width="395.52"><g><svg viewBox="0 0 395.52 45.793221898481825" height="45.793221898481825" width="395.52"><g transform="matrix(1,0,0,1,0,0)"><svg width="395.52" viewBox="2.200000047683716 -40.15999984741211 477.55999755859375 55.29999923706055" height="45.793221898481825" data-palette-color="#010c80"><path d="M4.88-0.9L3.32-0.66Q3-0.66 2.93-1.17L2.93-1.17Q2.66-3.47 2.51-4.74 2.37-6.01 2.31-6.64 2.25-7.28 2.23-7.46 2.22-7.64 2.22-7.71L2.22-7.71Q2.22-7.98 2.47-8.3 2.71-8.62 3.05-8.62L3.05-8.62Q3.3-8.62 3.58-8.33 3.86-8.03 4.11-7.64 4.37-7.25 4.55-6.86 4.74-6.47 4.79-6.3L4.79-6.3Q5.42-4.96 6.16-4.04 6.91-3.13 7.86-2.58 8.81-2.03 10.01-1.78 11.21-1.54 12.74-1.54L12.74-1.54Q15.36-1.54 16.81-2.78 18.26-4.03 18.26-6.79L18.26-6.79Q18.26-8.37 17.57-9.67 16.87-10.96 15.75-12.07 14.62-13.18 13.18-14.18 11.74-15.19 10.23-16.21 8.72-17.24 7.28-18.35 5.83-19.46 4.71-20.8 3.59-22.14 2.89-23.78 2.2-25.42 2.2-27.47L2.2-27.47Q2.2-28.71 2.65-29.79 3.1-30.86 3.86-31.74 4.61-32.62 5.63-33.31 6.64-34.01 7.79-34.48 8.94-34.96 10.12-35.21 11.3-35.45 12.43-35.45L12.43-35.45Q13.33-35.45 14.25-35.29 15.16-35.13 16.05-34.91 16.94-34.69 17.85-34.44 18.75-34.18 19.63-33.96L19.63-33.96 21.24-34.11Q21.46-34.11 21.52-33.92 21.58-33.74 21.61-33.59L21.61-33.59 22.31-27.86Q22.31-27.73 22-27.69 21.68-27.64 21.51-27.64L21.51-27.64Q21.36-27.64 21.07-27.67 20.78-27.71 20.73-27.76L20.73-27.76Q20.65-27.83 20.54-28.06 20.43-28.3 20.31-28.58 20.19-28.86 20.06-29.15 19.92-29.44 19.78-29.66L19.78-29.66Q18.6-31.47 16.77-32.36 14.94-33.25 12.74-33.25L12.74-33.25Q11.79-33.25 10.96-33.03 10.13-32.81 9.52-32.34 8.91-31.86 8.56-31.13 8.2-30.4 8.2-29.37L8.2-29.37Q8.2-27.88 8.9-26.67 9.59-25.46 10.73-24.4 11.87-23.34 13.32-22.34 14.77-21.34 16.27-20.3 17.77-19.26 19.23-18.09 20.68-16.92 21.81-15.5 22.95-14.09 23.65-12.35 24.34-10.62 24.34-8.45L24.34-8.45Q24.34-7.01 23.84-5.76 23.34-4.52 22.49-3.5 21.63-2.49 20.48-1.71 19.34-0.93 18.03-0.4 16.72 0.12 15.34 0.39 13.96 0.66 12.65 0.66L12.65 0.66Q10.99 0.66 9.75 0.42 8.52 0.17 7.63-0.13 6.74-0.44 6.13-0.68 5.52-0.93 5.1-0.93L5.1-0.93Q4.96-0.93 4.88-0.9L4.88-0.9ZM28.37-11.4L28.37-11.4Q28.37-13.7 29.38-15.8 30.39-17.9 32.1-19.51 33.81-21.12 36.08-22.07 38.35-23.02 40.87-23.02L40.87-23.02Q43.5-23.02 45.87-22.12 48.24-21.22 50.03-19.64 51.83-18.07 52.88-15.93 53.93-13.79 53.93-11.3L53.93-11.3Q53.93-8.76 52.96-6.58 52-4.39 50.29-2.78 48.58-1.17 46.23-0.26 43.87 0.66 41.09 0.66L41.09 0.66Q38.33 0.66 36-0.28 33.66-1.22 31.97-2.84 30.27-4.47 29.32-6.67 28.37-8.86 28.37-11.4ZM34.62-12.94L34.62-12.94Q34.62-11.62 34.81-10.22 35.01-8.81 35.4-7.48 35.79-6.15 36.39-4.98 36.98-3.81 37.81-2.92 38.64-2.03 39.69-1.51 40.74-1 42.06-1L42.06-1Q43.5-1 44.54-1.75 45.58-2.49 46.25-3.69 46.92-4.88 47.24-6.37 47.56-7.86 47.56-9.35L47.56-9.35Q47.56-10.55 47.34-11.88 47.12-13.21 46.68-14.51 46.24-15.82 45.6-17.02 44.97-18.21 44.13-19.13 43.28-20.04 42.25-20.58 41.21-21.12 39.99-21.12L39.99-21.12Q38.62-21.12 37.61-20.37 36.59-19.63 35.94-18.44 35.28-17.26 34.95-15.81 34.62-14.36 34.62-12.94ZM57.95-10.33L57.95-10.33Q57.98-13.87 59.03-16.3 60.08-18.73 61.84-20.21 63.59-21.7 65.93-22.36 68.26-23.02 70.82-23.02L70.82-23.02Q71.36-23.02 72.1-22.99 72.85-22.95 73.64-22.84 74.43-22.73 75.2-22.51 75.97-22.29 76.59-21.91 77.22-21.53 77.6-20.98 77.97-20.43 77.97-19.65L77.97-19.65Q77.97-19.07 77.75-18.71 77.53-18.36 77.14-18.15 76.75-17.94 76.24-17.87 75.73-17.8 75.14-17.8L75.14-17.8Q74.46-17.8 73.98-18.03 73.51-18.26 73.12-18.59 72.72-18.92 72.38-19.32 72.04-19.73 71.64-20.06 71.24-20.39 70.72-20.62 70.21-20.85 69.48-20.85L69.48-20.85Q67.77-20.85 66.67-19.98 65.57-19.12 64.95-17.79 64.33-16.46 64.09-14.87 63.86-13.28 63.86-11.84L63.86-11.84Q63.86-9.89 64.23-8.24 64.59-6.59 65.41-5.4 66.23-4.2 67.54-3.53 68.84-2.86 70.7-2.86L70.7-2.86Q71.38-2.86 72.05-3.08 72.72-3.3 73.35-3.67 73.97-4.05 74.52-4.54 75.07-5.03 75.53-5.59L75.53-5.59Q75.78-5.88 76.01-6.08 76.24-6.27 76.73-6.27L76.73-6.27Q77.31-6.27 77.74-5.97 78.17-5.66 78.17-5.32L78.17-5.32Q78.17-5.22 78.13-5.07 78.1-4.91 77.88-4.61L77.88-4.61Q76.95-3.44 75.87-2.47 74.8-1.49 73.58-0.81 72.36-0.12 70.95 0.26 69.55 0.63 67.96 0.63L67.96 0.63Q65.86 0.63 64.05-0.31 62.23-1.25 60.87-2.8 59.52-4.35 58.74-6.31 57.95-8.28 57.95-10.33ZM94.33 0L81.58 0Q81.44-0.05 81.39-0.33 81.34-0.61 81.34-0.76L81.34-0.76Q81.34-0.88 81.41-1.15 81.49-1.42 81.58-1.46L81.58-1.46Q81.9-1.61 82.49-1.7 83.07-1.78 83.66-2.04 84.25-2.29 84.68-2.84 85.12-3.39 85.12-4.47L85.12-4.47 85.12-16.19Q85.12-16.77 84.81-17.1 84.49-17.43 84-17.6 83.51-17.77 82.95-17.88 82.39-17.99 81.88-18.14L81.88-18.14Q81.73-18.19 81.65-18.27 81.56-18.36 81.56-18.63L81.56-18.63Q81.56-18.75 81.63-18.87 81.71-18.99 81.93-19.12L81.93-19.12 90.01-22.92Q90.1-22.97 90.21-23.02 90.32-23.07 90.37-23.07L90.37-23.07Q90.79-23.07 90.79-22.49L90.79-22.49 90.79-4.47Q90.79-3.39 91.23-2.84 91.67-2.29 92.25-2.04 92.84-1.78 93.43-1.7 94.01-1.61 94.33-1.46L94.33-1.46Q94.43-1.42 94.5-1.15 94.57-0.88 94.57-0.76L94.57-0.76Q94.57-0.61 94.52-0.33 94.47-0.05 94.33 0L94.33 0ZM84.07-31.91L84.07-31.91Q84.07-33.47 85-34.4 85.93-35.33 87.49-35.33L87.49-35.33Q89.06-35.33 89.98-34.4 90.91-33.47 90.91-31.91L90.91-31.91Q90.91-30.35 89.98-29.43 89.06-28.52 87.49-28.52L87.49-28.52Q85.93-28.52 85-29.43 84.07-30.35 84.07-31.91ZM110.54-2.71L107.68-0.49Q106.87 0.07 105.78 0.39 104.68 0.71 103.58 0.71L103.58 0.71Q100.6 0.71 99.05-0.63 97.5-1.98 97.5-4.27L97.5-4.27Q97.5-5.59 98.1-6.54 98.7-7.5 99.87-8.23 101.04-8.96 102.76-9.56 104.48-10.16 106.75-10.74L106.75-10.74Q107.97-11.06 108.72-11.43 109.46-11.79 110.1-12.13L110.1-12.13Q110.51-12.35 110.57-12.52 110.63-12.7 110.63-12.84L110.63-12.84 110.63-17.09Q110.63-17.9 110.4-18.59 110.17-19.29 109.71-19.8 109.24-20.31 108.58-20.61 107.92-20.9 107.09-20.9L107.09-20.9Q106.39-20.9 105.78-20.65 105.17-20.41 104.73-19.95 104.29-19.48 104.03-18.85 103.77-18.21 103.77-17.41L103.77-17.41Q103.77-17.33 103.79-17.19 103.8-17.04 103.82-16.88 103.85-16.72 103.87-16.6 103.9-16.48 103.9-16.46L103.9-16.46Q103.87-16.41 103.49-16.26 103.12-16.11 102.57-15.93 102.02-15.75 101.36-15.56 100.7-15.38 100.1-15.21 99.5-15.04 99.05-14.9 98.6-14.77 98.43-14.75L98.43-14.75Q98.16-14.75 98.1-15.03 98.04-15.31 98.04-15.58L98.04-15.58Q98.04-16.99 98.89-18.33 99.75-19.68 101.17-20.72 102.6-21.75 104.46-22.39 106.31-23.02 108.29-23.02L108.29-23.02Q110.05-23.02 111.44-22.57 112.83-22.12 113.81-21.33 114.78-20.53 115.3-19.49 115.81-18.46 115.81-17.29L115.81-17.29 115.81-5.64Q115.81-5 116.29-4.5 116.76-4 117.52-4L117.52-4Q117.96-4 118.31-4.16 118.67-4.32 118.95-4.53 119.23-4.74 119.42-4.9 119.62-5.05 119.77-5.05L119.77-5.05Q119.96-5.05 119.99-4.9 120.01-4.74 120.01-4.61L120.01-4.61Q120.01-4.2 119.9-3.77 119.79-3.34 119.52-3.15L119.52-3.15Q118.32-2.25 117.4-1.53 116.47-0.81 115.71-0.29 114.96 0.22 114.35 0.49 113.74 0.76 113.2 0.76L113.2 0.76Q112.71 0.76 112.33 0.49 111.95 0.22 111.67-0.17 111.39-0.56 111.2-1.01 111-1.46 110.87-1.86 110.73-2.25 110.66-2.49 110.59-2.73 110.54-2.71L110.54-2.71ZM103.19-4.86L103.19-4.86Q103.19-4.2 103.44-3.78 103.7-3.37 104.12-3.15 104.53-2.93 105.06-2.84 105.58-2.76 106.14-2.76L106.14-2.76Q106.66-2.76 107.41-3.02 108.17-3.27 108.89-3.7 109.61-4.13 110.12-4.68 110.63-5.22 110.63-5.79L110.63-5.79 110.63-9.81Q110.63-10.08 110.44-10.08L110.44-10.08Q110.39-10.08 110.34-10.06L110.34-10.06 104.68-7.42Q104.34-7.18 104.05-6.97 103.77-6.76 103.58-6.48 103.38-6.2 103.29-5.82 103.19-5.44 103.19-4.86ZM134.34-0.73L134.34-0.73Q134.34-0.59 134.29-0.32 134.24-0.05 134.09 0L134.09 0 121.35 0Q121.2-0.05 121.15-0.32 121.11-0.59 121.11-0.73L121.11-0.73Q121.11-0.85 121.18-1.12 121.25-1.39 121.35-1.44L121.35-1.44Q121.67-1.59 122.25-1.67 122.84-1.76 123.43-2.01 124.01-2.27 124.45-2.82 124.89-3.37 124.89-4.44L124.89-4.44 124.89-32.91Q124.89-33.5 124.57-33.83 124.26-34.16 123.77-34.33 123.28-34.5 122.72-34.61 122.16-34.72 121.64-34.86L121.64-34.86Q121.33-34.99 121.33-35.55L121.33-35.55Q121.33-35.67 121.4-35.88 121.47-36.08 121.69-36.21L121.69-36.21 129.77-40.01Q129.87-40.06 129.99-40.11 130.11-40.16 130.26-40.16L130.26-40.16Q130.46-40.16 130.51-40.03 130.55-39.89 130.55-39.58L130.55-39.58 130.55-4.44Q130.55-3.37 130.99-2.82 131.43-2.27 132.02-2.01 132.6-1.76 133.19-1.67 133.78-1.59 134.09-1.44L134.09-1.44Q134.19-1.39 134.26-1.12 134.34-0.85 134.34-0.73ZM148.91-0.73L148.91-0.73Q148.91-0.59 148.86-0.32 148.81-0.05 148.67 0L148.67 0 135.92 0Q135.78-0.05 135.73-0.32 135.68-0.59 135.68-0.73L135.68-0.73Q135.68-0.85 135.75-1.12 135.82-1.39 135.92-1.44L135.92-1.44Q136.24-1.59 136.83-1.67 137.41-1.76 138-2.01 138.58-2.27 139.02-2.82 139.46-3.37 139.46-4.44L139.46-4.44 139.46-32.91Q139.46-33.5 139.15-33.83 138.83-34.16 138.34-34.33 137.85-34.5 137.29-34.61 136.73-34.72 136.22-34.86L136.22-34.86Q135.9-34.99 135.9-35.55L135.9-35.55Q135.9-35.67 135.97-35.88 136.04-36.08 136.26-36.21L136.26-36.21 144.35-40.01Q144.44-40.06 144.57-40.11 144.69-40.16 144.83-40.16L144.83-40.16Q145.03-40.16 145.08-40.03 145.13-39.89 145.13-39.58L145.13-39.58 145.13-4.44Q145.13-3.37 145.57-2.82 146.01-2.27 146.59-2.01 147.18-1.76 147.76-1.67 148.35-1.59 148.67-1.44L148.67-1.44Q148.76-1.39 148.84-1.12 148.91-0.85 148.91-0.73ZM157.84 15.14L157.84 15.14Q157.4 15.14 156.99 14.99 156.57 14.84 156.23 14.58 155.89 14.31 155.68 13.95 155.48 13.6 155.48 13.16L155.48 13.16Q155.48 12.48 155.83 12.11 156.18 11.74 156.7 11.5 157.21 11.25 157.77 11.08 158.33 10.91 158.72 10.62L158.72 10.62Q158.99 10.42 159.3 10.17 159.6 9.91 159.85 9.35L159.85 9.35 163.04 1.9 153.69-17.6Q153.28-18.73 152.5-19.57 151.72-20.41 150.59-20.78L150.59-20.78Q150.42-20.83 150.18-20.89 149.93-20.95 149.7-21.04 149.47-21.14 149.31-21.3 149.15-21.46 149.15-21.73L149.15-21.73Q149.15-21.97 149.3-22.22 149.45-22.46 149.74-22.46L149.74-22.46 162.63-22.46Q162.78-22.46 162.8-22.17 162.82-21.88 162.82-21.8L162.82-21.8Q162.82-21.46 162.54-21.33 162.26-21.19 161.85-21.14 161.43-21.09 160.96-21.07 160.48-21.04 160.07-20.9 159.65-20.75 159.37-20.43 159.09-20.12 159.09-19.48L159.09-19.48Q159.09-19.41 159.2-19.18 159.31-18.95 159.31-18.9L159.31-18.9 165.36-5.93Q165.41-5.81 165.55-5.58 165.68-5.35 165.85-5.35L165.85-5.35Q165.95-5.35 166.05-5.46 166.14-5.57 166.22-5.71 166.29-5.86 166.34-5.99 166.39-6.13 166.41-6.18L166.41-6.18Q167.54-9.06 168.31-11.06 169.07-13.06 169.57-14.38 170.08-15.7 170.33-16.44 170.59-17.19 170.7-17.59 170.81-17.99 170.83-18.18 170.86-18.36 170.86-18.53L170.86-18.53Q170.91-19.38 170.34-19.95 169.78-20.51 169-20.78L169-20.78Q168.78-20.85 168.45-20.89 168.12-20.92 167.82-21.01 167.51-21.09 167.28-21.28 167.05-21.46 167.05-21.8L167.05-21.8Q167.05-22 167.22-22.23 167.39-22.46 167.59-22.46L167.59-22.46 177.33-22.46Q177.52-22.46 177.56-22.18 177.59-21.9 177.59-21.78L177.59-21.78Q177.59-21.61 177.55-21.48 177.5-21.36 177.31-21.26 177.13-21.17 176.8-21.07 176.47-20.97 175.93-20.87L175.93-20.87Q175.42-20.78 175.01-20.37 174.59-19.97 174.26-19.45 173.93-18.92 173.68-18.33 173.42-17.75 173.22-17.29L173.22-17.29 160.85 13.38Q160.65 13.84 160.29 14.17 159.92 14.5 159.48 14.72 159.04 14.94 158.6 15.04 158.16 15.14 157.84 15.14ZM194.19-16.99L194.19-16.99Q194.19-19.73 194.87-22.16 195.56-24.58 196.8-26.64 198.05-28.69 199.81-30.32 201.56-31.96 203.7-33.09 205.84-34.23 208.28-34.84 210.72-35.45 213.38-35.45L213.38-35.45Q215.63-35.45 217.71-35.05 219.8-34.64 222.02-34.11L222.02-34.11Q222.39-34.01 222.79-33.86 223.2-33.72 223.55-33.58 223.9-33.45 224.2-33.35 224.49-33.25 224.64-33.25L224.64-33.25Q224.68-33.25 224.97-33.35 225.25-33.45 225.37-33.45L225.37-33.45 226.49-33.45Q226.78-33.45 226.78-33.03L226.78-33.03 226.78-25.07Q226.78-24.93 226.67-24.88 226.56-24.83 226.2-24.83L226.2-24.83Q226.12-24.83 225.82-24.84 225.51-24.85 225.44-24.98L225.44-24.98Q225.39-25.05 225.26-25.27 225.12-25.49 224.97-25.72 224.81-25.95 224.67-26.16 224.54-26.37 224.51-26.44L224.51-26.44Q223.59-28.27 222.49-29.53 221.39-30.79 220.06-31.57 218.73-32.35 217.17-32.7 215.6-33.06 213.77-33.06L213.77-33.06Q211.45-33.06 209.66-32.52 207.86-31.98 206.52-31.01 205.18-30.03 204.26-28.66 203.35-27.29 202.77-25.67 202.2-24.05 201.94-22.2 201.69-20.36 201.69-18.41L201.69-18.41Q201.69-16.33 201.98-14.29 202.27-12.26 202.93-10.41 203.59-8.57 204.63-6.99 205.67-5.42 207.13-4.26 208.6-3.1 210.55-2.44 212.5-1.78 214.97-1.78L214.97-1.78Q217.04-1.78 218.84-2.4 220.63-3.03 222.12-4.09 223.61-5.15 224.77-6.53 225.93-7.91 226.76-9.42L226.76-9.42Q226.81-9.55 226.87-9.56 226.93-9.57 227.05-9.57L227.05-9.57 228.3-9.57Q228.37-9.57 228.46-9.51 228.54-9.45 228.54-9.25L228.54-9.25Q228.54-9.18 228.43-8.87 228.32-8.57 228.2-8.35L228.2-8.35 224.83-0.93Q224.78-0.85 224.68-0.81 224.59-0.76 224.51-0.76L224.51-0.76Q223.93-0.76 223.7-0.85 223.46-0.95 223.22-0.95L223.22-0.95Q222.49-0.95 221.28-0.7 220.07-0.44 218.67-0.15 217.26 0.15 215.83 0.4 214.41 0.66 213.28 0.66L213.28 0.66Q210.72 0.66 208.3 0.1 205.89-0.46 203.76-1.53 201.64-2.59 199.88-4.14 198.12-5.69 196.85-7.64 195.58-9.59 194.89-11.95 194.19-14.31 194.19-16.99ZM232.25-11.4L232.25-11.4Q232.25-13.7 233.26-15.8 234.28-17.9 235.99-19.51 237.69-21.12 239.97-22.07 242.24-23.02 244.75-23.02L244.75-23.02Q247.39-23.02 249.76-22.12 252.12-21.22 253.92-19.64 255.71-18.07 256.76-15.93 257.81-13.79 257.81-11.3L257.81-11.3Q257.81-8.76 256.85-6.58 255.88-4.39 254.17-2.78 252.47-1.17 250.11-0.26 247.75 0.66 244.97 0.66L244.97 0.66Q242.21 0.66 239.88-0.28 237.55-1.22 235.85-2.84 234.15-4.47 233.2-6.67 232.25-8.86 232.25-11.4ZM238.5-12.94L238.5-12.94Q238.5-11.62 238.7-10.22 238.89-8.81 239.28-7.48 239.67-6.15 240.27-4.98 240.87-3.81 241.7-2.92 242.53-2.03 243.58-1.51 244.63-1 245.95-1L245.95-1Q247.39-1 248.42-1.75 249.46-2.49 250.13-3.69 250.81-4.88 251.12-6.37 251.44-7.86 251.44-9.35L251.44-9.35Q251.44-10.55 251.22-11.88 251-13.21 250.56-14.51 250.12-15.82 249.49-17.02 248.85-18.21 248.01-19.13 247.17-20.04 246.13-20.58 245.09-21.12 243.87-21.12L243.87-21.12Q242.5-21.12 241.49-20.37 240.48-19.63 239.82-18.44 239.16-17.26 238.83-15.81 238.5-14.36 238.5-12.94ZM259.2-19.87L267.28-23.68Q267.38-23.73 267.49-23.78 267.6-23.83 267.65-23.83L267.65-23.83Q268.06-23.83 268.06-23.24L268.06-23.24 268.06-19.43Q268.14-19.19 268.26-19.19L268.26-19.19Q268.38-19.19 268.45-19.2 268.53-19.21 268.65-19.29L268.65-19.29Q270.21-20.09 271.3-20.64 272.38-21.19 273.18-21.57 273.97-21.95 274.59-22.16 275.22-22.36 275.85-22.47 276.49-22.58 277.24-22.61 278-22.63 279.1-22.63L279.1-22.63Q280.29-22.63 281.17-22.12 282.05-21.61 282.65-20.76 283.25-19.92 283.63-18.84 284.01-17.75 284.2-16.61 284.4-15.48 284.47-14.37 284.54-13.26 284.54-12.35L284.54-12.35Q284.54-11.5 284.51-10.77 284.47-10.03 284.43-9.17 284.4-8.3 284.36-7.2 284.32-6.1 284.32-4.54L284.32-4.54Q284.32-3.81 284.59-3.32 284.86-2.83 285.29-2.51 285.71-2.2 286.23-2.04 286.74-1.88 287.23-1.78 287.72-1.68 288.12-1.62 288.52-1.56 288.74-1.46L288.74-1.46Q288.84-1.42 288.91-1.15 288.99-0.88 288.99-0.76L288.99-0.76Q288.99-0.61 288.94-0.33 288.89-0.05 288.74 0L288.74 0 275.12 0Q274.97-0.05 274.92-0.33 274.87-0.61 274.87-0.76L274.87-0.76Q274.87-0.88 274.95-1.15 275.02-1.42 275.12-1.46L275.12-1.46Q275.44-1.61 275.96-1.7 276.49-1.78 277.04-2.08 277.58-2.37 278.04-2.97 278.49-3.56 278.63-4.74L278.63-4.74Q278.68-5.1 278.72-5.42 278.76-5.74 278.78-6.07 278.81-6.4 278.82-6.79 278.83-7.18 278.83-7.69L278.83-7.69Q278.83-8.79 278.81-10.03 278.78-11.28 278.78-12.82L278.78-12.82Q278.78-14.01 278.67-15.19 278.56-16.36 278.13-17.29 277.71-18.21 276.88-18.8 276.05-19.38 274.58-19.38L274.58-19.38Q274.07-19.38 273.67-19.32 273.26-19.26 272.69-19.04 272.12-18.82 271.19-18.38 270.26-17.94 268.7-17.19L268.7-17.19Q268.5-17.07 268.3-16.91 268.09-16.75 268.06-16.5L268.06-16.5 268.06-4.54Q268.06-3.44 268.5-2.87 268.94-2.29 269.53-2.04 270.11-1.78 270.7-1.7 271.29-1.61 271.6-1.46L271.6-1.46Q271.7-1.42 271.77-1.15 271.85-0.88 271.85-0.76L271.85-0.76Q271.85-0.61 271.8-0.33 271.75-0.05 271.6 0L271.6 0 258.86 0Q258.71-0.05 258.66-0.33 258.62-0.61 258.62-0.76L258.62-0.76Q258.62-0.88 258.69-1.15 258.76-1.42 258.86-1.46L258.86-1.46Q259.18-1.61 259.76-1.7 260.35-1.78 260.93-2.04 261.52-2.29 261.96-2.87 262.4-3.44 262.4-4.54L262.4-4.54 262.4-16.94Q262.4-17.53 262.08-17.86 261.76-18.19 261.28-18.36 260.79-18.53 260.23-18.64 259.66-18.75 259.15-18.9L259.15-18.9Q259.01-18.95 258.92-19.03 258.83-19.12 258.83-19.38L258.83-19.38Q258.83-19.51 258.91-19.63 258.98-19.75 259.2-19.87L259.2-19.87ZM291.33-19.87L299.41-23.68Q299.51-23.73 299.62-23.78 299.73-23.83 299.77-23.83L299.77-23.83Q300.19-23.83 300.19-23.24L300.19-23.24 300.19-19.43Q300.26-19.19 300.39-19.19L300.39-19.19Q300.51-19.19 300.58-19.2 300.65-19.21 300.78-19.29L300.78-19.29Q302.34-20.09 303.42-20.64 304.51-21.19 305.3-21.57 306.1-21.95 306.72-22.16 307.34-22.36 307.98-22.47 308.61-22.58 309.37-22.61 310.13-22.63 311.22-22.63L311.22-22.63Q312.42-22.63 313.3-22.12 314.18-21.61 314.78-20.76 315.38-19.92 315.75-18.84 316.13-17.75 316.33-16.61 316.52-15.48 316.6-14.37 316.67-13.26 316.67-12.35L316.67-12.35Q316.67-11.5 316.63-10.77 316.6-10.03 316.56-9.17 316.52-8.3 316.49-7.2 316.45-6.1 316.45-4.54L316.45-4.54Q316.45-3.81 316.72-3.32 316.99-2.83 317.41-2.51 317.84-2.2 318.35-2.04 318.87-1.88 319.35-1.78 319.84-1.68 320.25-1.62 320.65-1.56 320.87-1.46L320.87-1.46Q320.97-1.42 321.04-1.15 321.11-0.88 321.11-0.76L321.11-0.76Q321.11-0.61 321.06-0.33 321.01-0.05 320.87 0L320.87 0 307.25 0Q307.1-0.05 307.05-0.33 307-0.61 307-0.76L307-0.76Q307-0.88 307.07-1.15 307.15-1.42 307.25-1.46L307.25-1.46Q307.56-1.61 308.09-1.7 308.61-1.78 309.16-2.08 309.71-2.37 310.16-2.97 310.61-3.56 310.76-4.74L310.76-4.74Q310.81-5.1 310.85-5.42 310.88-5.74 310.91-6.07 310.93-6.4 310.94-6.79 310.96-7.18 310.96-7.69L310.96-7.69Q310.96-8.79 310.93-10.03 310.91-11.28 310.91-12.82L310.91-12.82Q310.91-14.01 310.8-15.19 310.69-16.36 310.26-17.29 309.83-18.21 309-18.8 308.17-19.38 306.71-19.38L306.71-19.38Q306.2-19.38 305.79-19.32 305.39-19.26 304.82-19.04 304.24-18.82 303.31-18.38 302.39-17.94 300.82-17.19L300.82-17.19Q300.63-17.07 300.42-16.91 300.21-16.75 300.19-16.5L300.19-16.5 300.19-4.54Q300.19-3.44 300.63-2.87 301.07-2.29 301.65-2.04 302.24-1.78 302.83-1.7 303.41-1.61 303.73-1.46L303.73-1.46Q303.83-1.42 303.9-1.15 303.97-0.88 303.97-0.76L303.97-0.76Q303.97-0.61 303.93-0.33 303.88-0.05 303.73 0L303.73 0 290.99 0Q290.84-0.05 290.79-0.33 290.74-0.61 290.74-0.76L290.74-0.76Q290.74-0.88 290.81-1.15 290.89-1.42 290.99-1.46L290.99-1.46Q291.3-1.61 291.89-1.7 292.47-1.78 293.06-2.04 293.65-2.29 294.09-2.87 294.53-3.44 294.53-4.54L294.53-4.54 294.53-16.94Q294.53-17.53 294.21-17.86 293.89-18.19 293.4-18.36 292.91-18.53 292.35-18.64 291.79-18.75 291.28-18.9L291.28-18.9Q291.13-18.95 291.05-19.03 290.96-19.12 290.96-19.38L290.96-19.38Q290.96-19.51 291.03-19.63 291.11-19.75 291.33-19.87L291.33-19.87ZM323.31-9.89L323.31-9.89Q323.31-12.74 324.11-15.15 324.92-17.55 326.43-19.31 327.95-21.07 330.13-22.05 332.32-23.02 335.1-23.02L335.1-23.02Q335.93-23.02 336.59-22.91 337.25-22.8 337.8-22.62 338.35-22.44 338.82-22.18 339.3-21.92 339.79-21.63L339.79-21.63Q340.35-21.34 341.07-20.58 341.79-19.82 342.42-18.82 343.06-17.82 343.5-16.69 343.94-15.55 343.94-14.5L343.94-14.5Q343.94-14.16 343.8-13.76 343.67-13.35 343.35-13.35L343.35-13.35 328.95-13.35Q328.7-13.35 328.62-12.92 328.53-12.48 328.53-11.84L328.53-11.84Q328.53-9.69 329.15-8.02 329.78-6.35 330.83-5.19 331.88-4.03 333.24-3.43 334.61-2.83 336.12-2.83L336.12-2.83Q337.08-2.83 337.96-3.09 338.83-3.34 339.64-3.76 340.45-4.17 341.15-4.69 341.86-5.2 342.5-5.71L342.5-5.71Q342.64-5.76 342.69-5.76L342.69-5.76Q342.77-5.76 342.89-5.64L342.89-5.64Q343.11-5.44 343.33-5.19 343.55-4.93 343.67-4.76L343.67-4.76Q343.74-4.69 343.74-4.61L343.74-4.61Q343.74-4.54 343.64-4.44L343.64-4.44Q342.84-3.49 341.67-2.58 340.49-1.66 339.16-0.94 337.83-0.22 336.44 0.22 335.05 0.66 333.81 0.66L333.81 0.66Q331.29 0.66 329.34-0.26 327.38-1.17 326.04-2.66 324.7-4.15 324-6.04 323.31-7.93 323.31-9.89ZM329.66-15.23L337.64-15.23Q338.27-15.23 338.27-15.8L338.27-15.8Q338.27-16.75 337.97-17.59 337.66-18.43 337.1-19.08 336.54-19.73 335.75-20.09 334.95-20.46 333.98-20.46L333.98-20.46Q332.8-20.46 331.93-19.96 331.05-19.46 330.44-18.75 329.83-18.04 329.52-17.29 329.22-16.53 329.22-15.99L329.22-15.99Q329.22-15.58 329.34-15.41 329.46-15.23 329.66-15.23L329.66-15.23ZM348.55-10.33L348.55-10.33Q348.57-13.87 349.62-16.3 350.67-18.73 352.43-20.21 354.19-21.7 356.52-22.36 358.85-23.02 361.42-23.02L361.42-23.02Q361.95-23.02 362.7-22.99 363.44-22.95 364.24-22.84 365.03-22.73 365.8-22.51 366.57-22.29 367.19-21.91 367.81-21.53 368.19-20.98 368.57-20.43 368.57-19.65L368.57-19.65Q368.57-19.07 368.35-18.71 368.13-18.36 367.74-18.15 367.35-17.94 366.84-17.87 366.32-17.8 365.74-17.8L365.74-17.8Q365.05-17.8 364.58-18.03 364.1-18.26 363.71-18.59 363.32-18.92 362.98-19.32 362.64-19.73 362.23-20.06 361.83-20.39 361.32-20.62 360.8-20.85 360.07-20.85L360.07-20.85Q358.36-20.85 357.26-19.98 356.17-19.12 355.54-17.79 354.92-16.46 354.69-14.87 354.46-13.28 354.46-11.84L354.46-11.84Q354.46-9.89 354.82-8.24 355.19-6.59 356.01-5.4 356.83-4.2 358.13-3.53 359.44-2.86 361.29-2.86L361.29-2.86Q361.98-2.86 362.65-3.08 363.32-3.3 363.94-3.67 364.56-4.05 365.11-4.54 365.66-5.03 366.13-5.59L366.13-5.59Q366.37-5.88 366.6-6.08 366.84-6.27 367.32-6.27L367.32-6.27Q367.91-6.27 368.34-5.97 368.76-5.66 368.76-5.32L368.76-5.32Q368.76-5.22 368.73-5.07 368.69-4.91 368.47-4.61L368.47-4.61Q367.54-3.44 366.47-2.47 365.39-1.49 364.17-0.81 362.95-0.12 361.55 0.26 360.15 0.63 358.56 0.63L358.56 0.63Q356.46 0.63 354.64-0.31 352.82-1.25 351.47-2.8 350.11-4.35 349.33-6.31 348.55-8.28 348.55-10.33ZM374.16-5.18L374.16-18.82 372.33-18.82Q371.98-18.82 371.79-18.99 371.59-19.17 371.57-19.36L371.57-19.36Q371.57-19.48 371.62-19.63 371.67-19.78 371.74-19.82L371.74-19.82Q372.23-20.14 372.8-20.57 373.38-21 373.94-21.46 374.5-21.92 375.04-22.39 375.57-22.85 375.99-23.24L375.99-23.24Q376.23-23.51 376.66-24.05 377.09-24.58 377.64-25.11 378.19-25.63 378.82-26.04 379.45-26.44 380.11-26.44L380.11-26.44Q380.26-26.44 380.46-26.34 380.65-26.25 380.65-26.1L380.65-26.1Q380.65-25.93 380.57-25.57 380.48-25.22 380.36-24.78 380.24-24.34 380.09-23.85 379.94-23.36 379.82-22.9L379.82-22.9Q379.82-22.71 379.88-22.58 379.94-22.46 380.21-22.44L380.21-22.44 386.44-22.44Q386.83-22.44 386.97-22.3 387.12-22.17 387.19-21.95L387.19-21.95Q387.24-21.83 387.29-21.45 387.34-21.07 387.39-20.62 387.44-20.17 387.47-19.71 387.51-19.26 387.51-18.97L387.51-18.97Q387.51-18.82 387.32-18.82L387.32-18.82 379.97-18.82Q379.85-18.82 379.83-18.77 379.82-18.73 379.82-18.6L379.82-18.6 379.82-6.47Q379.82-5.69 380.02-5.1 380.21-4.52 380.52-4.13 380.82-3.74 381.21-3.54 381.6-3.34 381.99-3.34L381.99-3.34Q383.12-3.34 383.82-3.67 384.53-4 385.05-4.39 385.56-4.79 385.95-5.11 386.34-5.44 386.83-5.44L386.83-5.44Q387.17-5.44 387.23-5.18 387.29-4.91 387.29-4.76L387.29-4.76Q387.29-4.44 387.21-4.26 387.12-4.08 387.07-3.98L387.07-3.98Q387.05-3.93 386.8-3.56 386.56-3.2 386.14-2.69 385.73-2.17 385.13-1.59 384.53-1 383.8-0.5 383.07 0 382.2 0.33 381.33 0.66 380.38 0.66L380.38 0.66Q379.06 0.66 377.92 0.17 376.77-0.32 375.94-1.14 375.11-1.95 374.63-3 374.16-4.05 374.16-5.18L374.16-5.18ZM402.57 0L389.83 0Q389.68-0.05 389.63-0.33 389.58-0.61 389.58-0.76L389.58-0.76Q389.58-0.88 389.66-1.15 389.73-1.42 389.83-1.46L389.83-1.46Q390.15-1.61 390.73-1.7 391.32-1.78 391.9-2.04 392.49-2.29 392.93-2.84 393.37-3.39 393.37-4.47L393.37-4.47 393.37-16.19Q393.37-16.77 393.05-17.1 392.73-17.43 392.25-17.6 391.76-17.77 391.2-17.88 390.63-17.99 390.12-18.14L390.12-18.14Q389.97-18.19 389.89-18.27 389.8-18.36 389.8-18.63L389.8-18.63Q389.8-18.75 389.88-18.87 389.95-18.99 390.17-19.12L390.17-19.12 398.25-22.92Q398.35-22.97 398.46-23.02 398.57-23.07 398.62-23.07L398.62-23.07Q399.03-23.07 399.03-22.49L399.03-22.49 399.03-4.47Q399.03-3.39 399.47-2.84 399.91-2.29 400.5-2.04 401.08-1.78 401.67-1.7 402.25-1.61 402.57-1.46L402.57-1.46Q402.67-1.42 402.74-1.15 402.82-0.88 402.82-0.76L402.82-0.76Q402.82-0.61 402.77-0.33 402.72-0.05 402.57 0L402.57 0ZM392.32-31.91L392.32-31.91Q392.32-33.47 393.25-34.4 394.17-35.33 395.74-35.33L395.74-35.33Q397.3-35.33 398.23-34.4 399.15-33.47 399.15-31.91L399.15-31.91Q399.15-30.35 398.23-29.43 397.3-28.52 395.74-28.52L395.74-28.52Q394.17-28.52 393.25-29.43 392.32-30.35 392.32-31.91ZM405.87-11.4L405.87-11.4Q405.87-13.7 406.88-15.8 407.89-17.9 409.6-19.51 411.31-21.12 413.58-22.07 415.85-23.02 418.37-23.02L418.37-23.02Q421-23.02 423.37-22.12 425.74-21.22 427.53-19.64 429.33-18.07 430.38-15.93 431.43-13.79 431.43-11.3L431.43-11.3Q431.43-8.76 430.46-6.58 429.5-4.39 427.79-2.78 426.08-1.17 423.72-0.26 421.37 0.66 418.59 0.66L418.59 0.66Q415.83 0.66 413.5-0.28 411.16-1.22 409.47-2.84 407.77-4.47 406.82-6.67 405.87-8.86 405.87-11.4ZM412.12-12.94L412.12-12.94Q412.12-11.62 412.31-10.22 412.51-8.81 412.9-7.48 413.29-6.15 413.89-4.98 414.48-3.81 415.31-2.92 416.14-2.03 417.19-1.51 418.24-1 419.56-1L419.56-1Q421-1 422.04-1.75 423.08-2.49 423.75-3.69 424.42-4.88 424.74-6.37 425.06-7.86 425.06-9.35L425.06-9.35Q425.06-10.55 424.84-11.88 424.62-13.21 424.18-14.51 423.74-15.82 423.1-17.02 422.47-18.21 421.62-19.13 420.78-20.04 419.75-20.58 418.71-21.12 417.49-21.12L417.49-21.12Q416.12-21.12 415.11-20.37 414.09-19.63 413.43-18.44 412.77-17.26 412.45-15.81 412.12-14.36 412.12-12.94ZM432.82-19.87L440.9-23.68Q441-23.73 441.1-23.78 441.21-23.83 441.26-23.83L441.26-23.83Q441.68-23.83 441.68-23.24L441.68-23.24 441.68-19.43Q441.75-19.19 441.87-19.19L441.87-19.19Q442-19.19 442.07-19.2 442.14-19.21 442.26-19.29L442.26-19.29Q443.83-20.09 444.91-20.64 446-21.19 446.79-21.57 447.59-21.95 448.21-22.16 448.83-22.36 449.47-22.47 450.1-22.58 450.86-22.61 451.62-22.63 452.71-22.63L452.71-22.63Q453.91-22.63 454.79-22.12 455.67-21.61 456.27-20.76 456.86-19.92 457.24-18.84 457.62-17.75 457.82-16.61 458.01-15.48 458.08-14.37 458.16-13.26 458.16-12.35L458.16-12.35Q458.16-11.5 458.12-10.77 458.08-10.03 458.05-9.17 458.01-8.3 457.98-7.2 457.94-6.1 457.94-4.54L457.94-4.54Q457.94-3.81 458.21-3.32 458.48-2.83 458.9-2.51 459.33-2.2 459.84-2.04 460.36-1.88 460.84-1.78 461.33-1.68 461.73-1.62 462.14-1.56 462.36-1.46L462.36-1.46Q462.46-1.42 462.53-1.15 462.6-0.88 462.6-0.76L462.6-0.76Q462.6-0.61 462.55-0.33 462.5-0.05 462.36 0L462.36 0 448.73 0Q448.59-0.05 448.54-0.33 448.49-0.61 448.49-0.76L448.49-0.76Q448.49-0.88 448.56-1.15 448.64-1.42 448.73-1.46L448.73-1.46Q449.05-1.61 449.58-1.7 450.1-1.78 450.65-2.08 451.2-2.37 451.65-2.97 452.1-3.56 452.25-4.74L452.25-4.74Q452.3-5.1 452.34-5.42 452.37-5.74 452.4-6.07 452.42-6.4 452.43-6.79 452.45-7.18 452.45-7.69L452.45-7.69Q452.45-8.79 452.42-10.03 452.4-11.28 452.4-12.82L452.4-12.82Q452.4-14.01 452.29-15.19 452.18-16.36 451.75-17.29 451.32-18.21 450.49-18.8 449.66-19.38 448.2-19.38L448.2-19.38Q447.68-19.38 447.28-19.32 446.88-19.26 446.31-19.04 445.73-18.82 444.8-18.38 443.88-17.94 442.31-17.19L442.31-17.19Q442.12-17.07 441.91-16.91 441.7-16.75 441.68-16.5L441.68-16.5 441.68-4.54Q441.68-3.44 442.12-2.87 442.56-2.29 443.14-2.04 443.73-1.78 444.32-1.7 444.9-1.61 445.22-1.46L445.22-1.46Q445.32-1.42 445.39-1.15 445.46-0.88 445.46-0.76L445.46-0.76Q445.46-0.61 445.41-0.33 445.37-0.05 445.22 0L445.22 0 432.47 0Q432.33-0.05 432.28-0.33 432.23-0.61 432.23-0.76L432.23-0.76Q432.23-0.88 432.3-1.15 432.38-1.42 432.47-1.46L432.47-1.46Q432.79-1.61 433.38-1.7 433.96-1.78 434.55-2.04 435.14-2.29 435.58-2.87 436.01-3.44 436.01-4.54L436.01-4.54 436.01-16.94Q436.01-17.53 435.7-17.86 435.38-18.19 434.89-18.36 434.4-18.53 433.84-18.64 433.28-18.75 432.77-18.9L432.77-18.9Q432.62-18.95 432.54-19.03 432.45-19.12 432.45-19.38L432.45-19.38Q432.45-19.51 432.52-19.63 432.6-19.75 432.82-19.87L432.82-19.87ZM467.9-0.15L467.9-0.15Q467.68-0.15 467.51-0.02 467.34 0.1 467.18 0.26 467.02 0.42 466.87 0.54 466.72 0.66 466.53 0.66L466.53 0.66 465.65 0.66Q465.6 0.66 465.5-0.05 465.41-0.76 465.3-1.75 465.19-2.73 465.11-3.8 465.04-4.86 465.04-5.57L465.04-5.57Q465.04-5.96 465.32-6.07 465.6-6.18 465.92-6.18L465.92-6.18Q466.09-6.18 466.3-6.05 466.51-5.93 466.69-5.75 466.87-5.57 467.02-5.37 467.16-5.18 467.24-5.03L467.24-5.03Q467.65-4.13 468.07-3.39 468.48-2.66 469.02-2.15 469.56-1.64 470.29-1.35 471.02-1.07 472.05-1.07L472.05-1.07Q472.83-1.07 473.32-1.34 473.81-1.61 474.07-2.05 474.34-2.49 474.43-3.05 474.51-3.61 474.51-4.22L474.51-4.22Q474.51-5.44 473.78-6.29 473.05-7.13 471.96-7.86 470.88-8.59 469.59-9.35 468.31-10.11 467.23-11.11 466.14-12.11 465.41-13.49 464.67-14.87 464.67-16.89L464.67-16.89Q464.67-18.07 465.41-19.18 466.14-20.29 467.31-21.14 468.48-22 469.94-22.51 471.39-23.02 472.83-23.02L472.83-23.02Q473.59-23.02 474.35-22.89 475.12-22.75 475.77-22.58 476.42-22.41 476.87-22.24 477.32-22.07 477.44-22L477.44-22Q477.61-21.88 477.72-21.62 477.83-21.36 477.87-20.8 477.91-20.24 477.92-19.3 477.93-18.36 477.93-16.85L477.93-16.85Q477.93-16.43 477.63-16.25 477.32-16.06 477.03-16.06L477.03-16.06Q476.76-16.06 476.5-16.16 476.25-16.26 476.17-16.48L476.17-16.48Q475.88-17.24 475.51-18.01 475.15-18.77 474.67-19.4 474.2-20.02 473.56-20.4 472.93-20.78 472.1-20.78L472.1-20.78Q471.61-20.78 471.12-20.65 470.63-20.53 470.24-20.18 469.85-19.82 469.62-19.21 469.39-18.6 469.39-17.65L469.39-17.65Q469.39-16.82 470.16-16.11 470.92-15.41 472.07-14.69 473.22-13.96 474.57-13.13 475.93-12.3 477.08-11.23 478.22-10.16 478.99-8.75 479.76-7.35 479.76-5.44L479.76-5.44Q479.76-4.03 479.03-2.89 478.3-1.76 477.15-0.98 476-0.2 474.6 0.23 473.19 0.66 471.85 0.66L471.85 0.66Q471.17 0.66 470.48 0.54 469.8 0.42 469.24 0.26 468.68 0.1 468.31-0.02 467.95-0.15 467.9-0.15Z" opacity="1" transform="matrix(1,0,0,1,0,0)" fill="#ffffff" class="undefined-text-0" data-fill-palette-color="primary" id="text-0"></path></svg></g></svg></g></svg></g></svg></g></svg></g></svg></g></svg></g></svg></g></svg><rect width="395.52" height="247.2" fill="none" stroke="none" visibility="hidden"></rect></g></svg></g></svg>